<svg xmlns="http://www.w3.org/2000/svg" xmlns:xlink="http://www.w3.org/1999/xlink" id="Layer_1" data-name="Layer 1" viewBox="0 0 241.76 48.98"><defs><style>      .cls-1 {        clip-path: url(#clippath-4);      }      .cls-2 {        fill: #fff;      }      .cls-3 {        fill: none;      }      .cls-4 {        clip-path: url(#clippath-1);      }      .cls-5 {        opacity: .6;      }      .cls-6 {        clip-path: url(#clippath-3);      }      .cls-7 {        clip-path: url(#clippath-2);      }      .cls-8 {        clip-path: url(#clippath);      }    </style><clipPath id="clippath"><rect class="cls-3" y=".22" width="241.7" height="48.77"></rect></clipPath><clipPath id="clippath-1"><rect class="cls-3" y=".22" width="241.7" height="48.77"></rect></clipPath><clipPath id="clippath-2"><rect class="cls-3" y=".22" width="241.7" height="48.77"></rect></clipPath><clipPath id="clippath-3"><rect class="cls-3" x="21.66" width="21.59" height="48.76"></rect></clipPath><clipPath id="clippath-4"><rect class="cls-3" y=".22" width="241.7" height="48.77"></rect></clipPath></defs><g id="Lexipol_25_White" data-name="Lexipol 25 White"><g class="cls-8"><g class="cls-4"><polygon class="cls-2" points="15.02 37.66 15.02 32.05 15.02 7.23 11.46 7.56 11.46 32.05 11.46 37.66 11.46 37.98 11.46 42.3 15.02 44.56 15.02 37.98 15.02 37.66"></polygon><polygon class="cls-2" points="18.1 6.94 18.1 32.12 18.1 37.73 18.1 38.05 18.1 46.51 21.66 48.76 21.66 38.05 21.66 37.73 21.66 32.12 21.66 6.61 18.1 6.94"></polygon><polygon class="cls-2" points=".08 8.62 4.84 11.99 4.84 32.77 4.84 38.12 8.4 40.37 8.4 38.7 8.4 38.38 8.4 32.77 8.4 7.84 .08 8.62"></polygon><polygon class="cls-2" points="19.35 .22 .08 2.02 .08 5.78 21.66 3.76 21.66 .22 19.35 .22"></polygon><g class="cls-7"><g class="cls-5"><g class="cls-6"><polygon class="cls-2" points="28.3 37.66 28.3 32.05 28.3 7.23 31.87 7.56 31.87 32.05 31.87 37.66 31.87 37.98 31.87 42.3 28.3 44.56 28.3 37.98 28.3 37.66"></polygon><polygon class="cls-2" points="21.66 6.61 25.22 6.95 25.22 32.12 25.22 37.72 25.22 38.05 25.22 46.51 21.66 48.76 21.66 38.05 21.66 37.72 21.66 32.12 21.66 6.61"></polygon><polygon class="cls-2" points="34.92 38.38 34.92 32.77 34.92 7.84 43.25 8.62 38.49 11.99 38.49 32.77 38.49 38.12 34.92 40.37 34.92 38.7 34.92 38.38"></polygon><polygon class="cls-2" points="21.66 0 43.25 2.02 43.25 5.78 21.66 3.76 21.66 0"></polygon></g></g></g><polygon class="cls-2" points="58.53 32.15 74.32 32.15 74.32 38.12 51.09 38.12 51.09 2.03 58.53 2.03 58.53 32.15"></polygon><polygon class="cls-2" points="99.8 22.48 85.52 22.48 85.52 32.15 102.28 32.15 102.28 38.12 78.08 38.12 78.08 2.03 102.23 2.03 102.23 8.05 85.52 8.05 85.52 16.65 99.8 16.65 99.8 22.48"></polygon><polygon class="cls-2" points="120.44 14.47 127.21 2.03 135.76 2.03 125.25 19.92 136.03 38.12 127.38 38.12 120.44 25.48 113.5 38.12 104.85 38.12 115.63 19.92 105.12 2.03 113.67 2.03 120.44 14.47"></polygon><rect class="cls-2" x="139.77" y="2.03" width="7.44" height="36.09"></rect><g class="cls-1"><path class="cls-2" d="M159.61,25.4v12.72h-7.44V2.03h14.08c2.13,0,4.04.3,5.71.89,1.68.59,3.1,1.43,4.26,2.49,1.17,1.07,2.05,2.33,2.67,3.79s.92,3.05.92,4.77-.31,3.33-.92,4.73c-.61,1.4-1.5,2.6-2.67,3.59-1.16.99-2.59,1.76-4.26,2.29-1.68.54-3.58.81-5.71.81h-6.64ZM159.61,19.38h6.64c1.06,0,1.97-.13,2.74-.4.77-.26,1.4-.63,1.88-1.1.49-.47.85-1.04,1.08-1.7.23-.66.35-1.38.35-2.16s-.12-1.52-.35-2.24c-.23-.72-.59-1.36-1.08-1.91-.49-.55-1.12-.99-1.88-1.33-.77-.33-1.68-.5-2.74-.5h-6.64v11.33Z"></path><path class="cls-2" d="M213.83,20.89c0,2.76-.37,5.24-1.11,7.43-.74,2.19-1.79,4.05-3.14,5.57-1.35,1.52-2.96,2.69-4.85,3.51-1.88.82-3.96,1.23-6.22,1.23s-4.34-.41-6.22-1.23c-1.88-.82-3.51-1.99-4.87-3.51-1.36-1.52-2.43-3.38-3.19-5.57-.76-2.19-1.14-4.66-1.14-7.43v-1.58c0-2.74.38-5.21,1.13-7.41.75-2.2,1.81-4.07,3.16-5.6,1.35-1.54,2.97-2.71,4.86-3.53,1.88-.82,3.96-1.23,6.22-1.23s4.34.41,6.22,1.23c1.88.82,3.5,2,4.86,3.53,1.35,1.54,2.41,3.4,3.16,5.6.75,2.2,1.13,4.67,1.13,7.41v1.58ZM206.29,19.25c0-3.78-.68-6.66-2.03-8.63-1.35-1.97-3.29-2.95-5.8-2.95s-4.45.98-5.8,2.95c-1.35,1.97-2.03,4.84-2.03,8.63v1.64c0,1.88.18,3.55.53,5,.35,1.45.87,2.66,1.54,3.64.67.98,1.49,1.73,2.47,2.23.97.5,2.09.76,3.35.76,2.51,0,4.44-.99,5.78-2.97,1.34-1.98,2.01-4.87,2.01-8.65v-1.64Z"></path><polygon class="cls-2" points="225.97 32.15 241.76 32.15 241.76 38.12 218.53 38.12 218.53 2.03 225.97 2.03 225.97 32.15"></polygon></g></g></g></g></svg>